<mxfile host="app.diagrams.net" modified="2024-06-03T13:45:33.169Z" agent="Mozilla/5.0 (Windows NT 10.0; Win64; x64) AppleWebKit/537.36 (KHTML, like Gecko) Chrome/125.0.0.0 Safari/537.36" etag="tvkkP7FA3zvIFFiKlu2q" version="24.4.8" type="device">
  <diagram name="Trang-1" id="_ZgqYXp_hxllRHMwkKHh">
    <mxGraphModel dx="1434" dy="756" grid="1" gridSize="10" guides="1" tooltips="1" connect="1" arrows="1" fold="1" page="1" pageScale="1" pageWidth="827" pageHeight="1169" math="0" shadow="0">
      <root>
        <mxCell id="0" />
        <mxCell id="1" parent="0" />
        <mxCell id="4JWdzelT5IVzxTuJcsom-5" value="1" style="edgeStyle=orthogonalEdgeStyle;rounded=0;orthogonalLoop=1;jettySize=auto;html=1;exitX=0.5;exitY=1;exitDx=0;exitDy=0;entryX=0.5;entryY=0;entryDx=0;entryDy=0;" edge="1" parent="1">
          <mxGeometry y="10" relative="1" as="geometry">
            <mxPoint x="290" y="231" as="sourcePoint" />
            <mxPoint x="290" y="311" as="targetPoint" />
            <mxPoint as="offset" />
          </mxGeometry>
        </mxCell>
        <mxCell id="4JWdzelT5IVzxTuJcsom-1" value="Department" style="rounded=0;whiteSpace=wrap;html=1;" vertex="1" parent="1">
          <mxGeometry x="230" y="170" width="120" height="60" as="geometry" />
        </mxCell>
        <mxCell id="4JWdzelT5IVzxTuJcsom-2" value="Employee" style="rounded=0;whiteSpace=wrap;html=1;" vertex="1" parent="1">
          <mxGeometry x="230" y="470" width="120" height="60" as="geometry" />
        </mxCell>
        <mxCell id="4JWdzelT5IVzxTuJcsom-3" value="CÃ³" style="rhombus;whiteSpace=wrap;html=1;" vertex="1" parent="1">
          <mxGeometry x="250" y="310" width="80" height="80" as="geometry" />
        </mxCell>
        <mxCell id="4JWdzelT5IVzxTuJcsom-6" style="edgeStyle=orthogonalEdgeStyle;rounded=0;orthogonalLoop=1;jettySize=auto;html=1;exitX=0.5;exitY=1;exitDx=0;exitDy=0;entryX=0.5;entryY=0;entryDx=0;entryDy=0;" edge="1" parent="1">
          <mxGeometry relative="1" as="geometry">
            <mxPoint x="289.5" y="390" as="sourcePoint" />
            <mxPoint x="289.5" y="470" as="targetPoint" />
          </mxGeometry>
        </mxCell>
        <mxCell id="4JWdzelT5IVzxTuJcsom-8" value="N" style="edgeLabel;html=1;align=center;verticalAlign=middle;resizable=0;points=[];" vertex="1" connectable="0" parent="4JWdzelT5IVzxTuJcsom-6">
          <mxGeometry x="-0.1" y="4" relative="1" as="geometry">
            <mxPoint x="7" as="offset" />
          </mxGeometry>
        </mxCell>
        <mxCell id="4JWdzelT5IVzxTuJcsom-9" value="&lt;u&gt;departmentId&lt;/u&gt;" style="ellipse;whiteSpace=wrap;html=1;" vertex="1" parent="1">
          <mxGeometry x="50" y="50" width="120" height="80" as="geometry" />
        </mxCell>
        <mxCell id="4JWdzelT5IVzxTuJcsom-10" value="name" style="ellipse;whiteSpace=wrap;html=1;" vertex="1" parent="1">
          <mxGeometry x="240" y="50" width="120" height="80" as="geometry" />
        </mxCell>
        <mxCell id="4JWdzelT5IVzxTuJcsom-11" value="status" style="ellipse;whiteSpace=wrap;html=1;" vertex="1" parent="1">
          <mxGeometry x="450" y="50" width="120" height="80" as="geometry" />
        </mxCell>
        <mxCell id="4JWdzelT5IVzxTuJcsom-12" value="" style="endArrow=none;html=1;rounded=0;exitX=0.45;exitY=1.013;exitDx=0;exitDy=0;exitPerimeter=0;" edge="1" parent="1" source="4JWdzelT5IVzxTuJcsom-10">
          <mxGeometry width="50" height="50" relative="1" as="geometry">
            <mxPoint x="390" y="210" as="sourcePoint" />
            <mxPoint x="510" y="130" as="targetPoint" />
            <Array as="points">
              <mxPoint x="300" y="170" />
            </Array>
          </mxGeometry>
        </mxCell>
        <mxCell id="4JWdzelT5IVzxTuJcsom-13" value="" style="endArrow=none;html=1;rounded=0;" edge="1" parent="1">
          <mxGeometry width="50" height="50" relative="1" as="geometry">
            <mxPoint x="300" y="170" as="sourcePoint" />
            <mxPoint x="120" y="130" as="targetPoint" />
          </mxGeometry>
        </mxCell>
        <mxCell id="4JWdzelT5IVzxTuJcsom-14" value="&lt;u&gt;employeeId&lt;/u&gt;" style="ellipse;whiteSpace=wrap;html=1;" vertex="1" parent="1">
          <mxGeometry x="40" y="620" width="120" height="80" as="geometry" />
        </mxCell>
        <mxCell id="4JWdzelT5IVzxTuJcsom-15" value="name" style="ellipse;whiteSpace=wrap;html=1;" vertex="1" parent="1">
          <mxGeometry x="180" y="620" width="120" height="80" as="geometry" />
        </mxCell>
        <mxCell id="4JWdzelT5IVzxTuJcsom-16" value="sex" style="ellipse;whiteSpace=wrap;html=1;" vertex="1" parent="1">
          <mxGeometry x="330" y="620" width="120" height="80" as="geometry" />
        </mxCell>
        <mxCell id="4JWdzelT5IVzxTuJcsom-17" value="address" style="ellipse;whiteSpace=wrap;html=1;" vertex="1" parent="1">
          <mxGeometry x="470" y="620" width="120" height="80" as="geometry" />
        </mxCell>
        <mxCell id="4JWdzelT5IVzxTuJcsom-18" value="phone" style="ellipse;whiteSpace=wrap;html=1;" vertex="1" parent="1">
          <mxGeometry x="600" y="620" width="120" height="80" as="geometry" />
        </mxCell>
        <mxCell id="4JWdzelT5IVzxTuJcsom-19" value="status" style="ellipse;whiteSpace=wrap;html=1;" vertex="1" parent="1">
          <mxGeometry x="490" y="440" width="120" height="80" as="geometry" />
        </mxCell>
        <mxCell id="4JWdzelT5IVzxTuJcsom-20" value="dateOfBirth" style="ellipse;whiteSpace=wrap;html=1;" vertex="1" parent="1">
          <mxGeometry x="40" y="460" width="120" height="80" as="geometry" />
        </mxCell>
        <mxCell id="4JWdzelT5IVzxTuJcsom-21" value="" style="endArrow=none;html=1;rounded=0;entryX=1;entryY=0.5;entryDx=0;entryDy=0;exitX=0.008;exitY=0.633;exitDx=0;exitDy=0;exitPerimeter=0;" edge="1" parent="1" source="4JWdzelT5IVzxTuJcsom-2" target="4JWdzelT5IVzxTuJcsom-20">
          <mxGeometry width="50" height="50" relative="1" as="geometry">
            <mxPoint x="250" y="604" as="sourcePoint" />
            <mxPoint x="67" y="566" as="targetPoint" />
          </mxGeometry>
        </mxCell>
        <mxCell id="4JWdzelT5IVzxTuJcsom-22" value="" style="endArrow=none;html=1;rounded=0;entryX=0.5;entryY=0;entryDx=0;entryDy=0;exitX=0;exitY=1;exitDx=0;exitDy=0;" edge="1" parent="1" source="4JWdzelT5IVzxTuJcsom-2" target="4JWdzelT5IVzxTuJcsom-14">
          <mxGeometry width="50" height="50" relative="1" as="geometry">
            <mxPoint x="170.04" y="598" as="sourcePoint" />
            <mxPoint x="99.03999999999999" y="590" as="targetPoint" />
          </mxGeometry>
        </mxCell>
        <mxCell id="4JWdzelT5IVzxTuJcsom-23" value="" style="endArrow=none;html=1;rounded=0;entryX=0.5;entryY=0;entryDx=0;entryDy=0;exitX=0.5;exitY=1;exitDx=0;exitDy=0;" edge="1" parent="1" source="4JWdzelT5IVzxTuJcsom-2" target="4JWdzelT5IVzxTuJcsom-15">
          <mxGeometry width="50" height="50" relative="1" as="geometry">
            <mxPoint x="305" y="550" as="sourcePoint" />
            <mxPoint x="175" y="640" as="targetPoint" />
          </mxGeometry>
        </mxCell>
        <mxCell id="4JWdzelT5IVzxTuJcsom-24" value="" style="endArrow=none;html=1;rounded=0;entryX=0.5;entryY=0;entryDx=0;entryDy=0;" edge="1" parent="1" target="4JWdzelT5IVzxTuJcsom-16">
          <mxGeometry width="50" height="50" relative="1" as="geometry">
            <mxPoint x="310" y="530" as="sourcePoint" />
            <mxPoint x="320" y="650" as="targetPoint" />
          </mxGeometry>
        </mxCell>
        <mxCell id="4JWdzelT5IVzxTuJcsom-25" value="" style="endArrow=none;html=1;rounded=0;entryX=0.5;entryY=0;entryDx=0;entryDy=0;exitX=1;exitY=0.75;exitDx=0;exitDy=0;" edge="1" parent="1" source="4JWdzelT5IVzxTuJcsom-2" target="4JWdzelT5IVzxTuJcsom-18">
          <mxGeometry width="50" height="50" relative="1" as="geometry">
            <mxPoint x="730" y="530" as="sourcePoint" />
            <mxPoint x="600" y="620" as="targetPoint" />
          </mxGeometry>
        </mxCell>
        <mxCell id="4JWdzelT5IVzxTuJcsom-26" value="" style="endArrow=none;html=1;rounded=0;entryX=0.45;entryY=0.013;entryDx=0;entryDy=0;exitX=1;exitY=1;exitDx=0;exitDy=0;entryPerimeter=0;" edge="1" parent="1" source="4JWdzelT5IVzxTuJcsom-2" target="4JWdzelT5IVzxTuJcsom-17">
          <mxGeometry width="50" height="50" relative="1" as="geometry">
            <mxPoint x="580" y="570" as="sourcePoint" />
            <mxPoint x="450" y="660" as="targetPoint" />
          </mxGeometry>
        </mxCell>
        <mxCell id="4JWdzelT5IVzxTuJcsom-27" value="" style="endArrow=none;html=1;rounded=0;entryX=1;entryY=0.5;entryDx=0;entryDy=0;exitX=0;exitY=0.5;exitDx=0;exitDy=0;" edge="1" parent="1" source="4JWdzelT5IVzxTuJcsom-19" target="4JWdzelT5IVzxTuJcsom-2">
          <mxGeometry width="50" height="50" relative="1" as="geometry">
            <mxPoint x="480" y="450" as="sourcePoint" />
            <mxPoint x="350" y="540" as="targetPoint" />
          </mxGeometry>
        </mxCell>
      </root>
    </mxGraphModel>
  </diagram>
</mxfile>
